# xmcd
#
# Track frame offsets:
#	150
#	11683
#	26672
#	38875
#	52413
#	67137
#
# Disc length: 1047 seconds
#
# Revision: 1
# Processed by: cddbd v1.5.2PL0 Copyright (c) Steve Scherf et al.
# Submitted via: audiograbber 1.83.01
#
DISCID=55041506
DTITLE=Todd Day Wait - Travellin' Blues
DYEAR=2014
DGENRE=Modern Country
TTITLE0=Travellin' Blues
TTITLE1=Oh Don't Tell Her
TTITLE2=Just Because I'll Be Gone
TTITLE3=A Million MIles Away
TTITLE4=Goodbye
TTITLE5=Roll To Alabama
EXTD=
EXTT0=
EXTT1=
EXTT2=
EXTT3=
EXTT4=
EXTT5=
PLAYORDER=
